# xmcd
#
# Track frame offsets: 
#        150
#        13462
#        31581
#        53451
#        70320
#        87918
#        103716
#        123850
#        144985
#        164472
#        186918
#        202946
#
# Disc length: 2920 seconds
#
# Revision: 0
# Processed by: cddbd v1.5.2PL0 Copyright (c) Steve Scherf et al.
# Submitted via: ExactAudioCopyFreeDBPlugin 1.0
#
DISCID=9a0b660c
DTITLE=Ina Forsman - Been Meaning To Tell You
DYEAR=2019
DGENRE=Blues
TTITLE0=Be My Home
TTITLE1=Get Mine
TTITLE2=All Good
TTITLE3=Genius
TTITLE4=Whatcha Gonna Do
TTITLE5=Why You Gotta Be That Way
TTITLE6=Miss Mistreated
TTITLE7=Figure
TTITLE8=Who Hurt You
TTITLE9=Every Single Beat
TTITLE10=Chains
TTITLE11=Sunny
EXTD=
EXTT0=
EXTT1=
EXTT2=
EXTT3=
EXTT4=
EXTT5=
EXTT6=
EXTT7=
EXTT8=
EXTT9=
EXTT10=
EXTT11=
PLAYORDER=
